<?xml version="1.0" encoding="utf-8"?>
<!-- Generator: Adobe Illustrator 19.0.0, SVG Export Plug-In . SVG Version: 6.00 Build 0)  -->
<svg version="1.1" id="Слой_1" xmlns="http://www.w3.org/2000/svg" xmlns:xlink="http://www.w3.org/1999/xlink" x="0px" y="0px"
	 viewBox="0 0 1417.3 1417.3" style="enable-background:new 0 0 1417.3 1417.3;" xml:space="preserve">
<style type="text/css">
	.st0{fill:#F59A21;}
	.st1{fill:#FFFFFF;}
</style>
<g id="XMLID_393_">
	<path id="Pin" class="st0" d="M705.8,13.4c-266.3,0-483.1,216.8-483.1,483.2c0,256.5,438.4,855.7,457,881l17.4,23.7
		c2,2.8,5.3,4.3,8.7,4.3c3.5,0,6.8-1.6,8.8-4.3l17.4-23.7c18.8-25.3,457-624.5,457-881C1189,230.1,972.2,13.4,705.8,13.4z"/>
	<g id="XMLID_391_">
		<path id="XMLID_404_" class="st1" d="M980,923c6.8,6.6,13.3,12.7,20.8,28.1c1.1,2.2,2.3,4.7,3,7.1c0.2,0.6,0.2,1.2,0.2,1.2
			c0.1,1.6-0.1,2.8-0.2,3.3c-2.1,8.5-83.2,137.8-84,138c-10.7,2.4-21.3,1.2-21.3,1.2c-13.5-1.6-40.8-5.4-61.4-19.6
			c-5.4-3.7-10.4-7.8-15-12.4c-3.5-3.3-8.9-8.5-8.9-8.5c-0.8-0.8-2.2-2.1-3.1-3c0,0-10-9.4-15.7-14.8c-7.5-7.1-15-14.3-22.5-21.4
			c-8.8-8.4-17.7-16.8-26.5-25.2c-9.6-9.2-19.4-18.4-29-27.7c-10.1-9.5-20-19.1-30.1-28.6c-10.1-9.5-20-19.1-30.1-28.6
			c-9.5-9-19-18.1-28.5-27.1c-8.5-8.1-17-16.2-25.5-24.3c-7.1-6.7-14.1-13.5-21.2-20.1c-5.1-4.9-10.3-9.7-15.4-14.6
			c-2.8-2.6-5.5-5.3-8.3-7.8c-0.3-0.3-0.6-0.6-1.1-1c0,1.8,0,3.6,0,5.3c0,4.8,0,9.6,0,14.4c0,7,0,19,0,19c0,1.2,0,3.1,0,4.2
			c0,0,0,14.8,0,23.4c0,9.2,0,18.3,0,27.5c0,9,0,18,0,27c0,8.2,0,16.3,0,24.4c0,6.5,0,12.9,0,19.3c0,3.9,0,7.9,0,11.9
			c0,5.4-0.1,10.7-0.7,16.1c-1.6,13.8-5.9,27-13,38.9c-9.9,16.5-21.7,26-29.9,32.1c-9.2,7-19.3,14.9-24.3,14.6
			S329.1,832.7,335.2,829.9c6.1-2.9,1.9-1,1.9-1c-1.1,0.4-1.9-0.1-1.9-1.3c0,0,0-2.5,0-7.7c0-4.4,0-7.3,0-12.1c0-5.3,0-10.6,0-16
			c0-6.5,0-12.8,0-19.3c0-7.3,0-14.6,0-22c0-8.1,0-16.2,0-24.3c0-8.6,0-17.3,0-25.8c0-9,0-18.1,0-27.1c0-9.2,0-18.4,0-27.7
			s0-18.4,0-27.7c0-9,0-18,0-27c0-8.7,0-17.4,0-26.1c0-8.1,0-16.2,0-24.3c0-7.4,0-14.7,0-22.1c0-6.5,0-12.9,0-19.4
			c0-5.3,0-10.7,0-16c0-4,0-8.1,0-12.1c0-2.5,0-5.2,0-7.7c0-1,0-1.8,0-2.8c0.2-16.7,2-33.7,4.8-50.1c2.8-16.6,6.8-33.1,12-49.1
			c5.2-16,11.4-31.6,18.8-46.6c6.8-14,14.5-27.7,23.1-40.7c8.6-12.9,18-25.3,28.2-37.1c10.3-11.8,21.3-22.8,32.9-33.2
			c11.8-10.4,24-20,37-28.9c13-9,26.7-17.2,40.7-24.6c14.3-7.5,29-14.3,44.2-20c15.1-5.7,30.6-10.4,46.4-13.9
			c16.1-3.7,32.5-6.1,49.1-7.6c17.1-1.5,34.2-2,51.3-1.3c17,0.7,33.8,2.5,50.4,5.7c16.7,3.1,33.3,7.4,49.4,12.9
			c15.9,5.4,31.4,11.9,46.4,19.2c14.3,7,28.2,14.7,41.5,23.4c13.1,8.5,25.7,17.7,37.7,27.7c12,10,23.3,20.8,34,32.1
			c10.5,11.3,20.3,23.4,29.3,36c9.1,12.8,17.4,26.2,24.8,40c7.7,14.4,14.5,29.2,20.1,44.5c5.6,15.5,10.1,31.4,13.2,47.5
			c3.2,16.3,5.1,32.8,5.8,49.5c0.6,16.1,0.2,32.3-1.2,48.4c-1.4,15.3-3.7,30.4-7.1,45.3c-3.4,14.7-7.7,29.1-13,43.3
			c-5.4,14.1-11.7,27.9-19,41c-7.4,13.5-15.7,26.4-24.8,38.7c-8.5,11.5-17.7,22.7-27.4,33.3c-9.7,10.5-20.1,20.4-30.9,29.8
			c-10.9,9.3-22.4,18-34.3,26.1c-12.2,8.3-24.8,15.8-37.8,22.6c-12.4,6.5-25.1,12.4-38,17.7c1.3,1.2,2.4,2.3,3.7,3.5
			c3.3,3.2,6.7,6.4,10,9.5c5,4.7,13.3,12.6,13.3,12.6c0.8,0.8,2.2,2.1,3.1,3c0,0,10.5,10,16.5,15.7c6.6,6.3,13.1,12.5,19.7,18.8
			c6.7,6.4,13.2,12.6,19.9,19c6.3,5.9,12.4,11.9,18.6,17.7c5.2,5,10.5,10,15.7,14.9c3.8,3.6,7.5,7.2,11.3,10.8
			C980,923,980,923,980,923z"/>
	</g>
	<path id="XMLID_395_" class="st0" d="M708.6,317c-21.8,0-41.7,3.6-59.8,10.9c-18,7.3-34.1,17.4-48.3,30.3
		c-14.2,12.9-25.1,28.3-32.7,45.9c-7.6,17.7-11.4,36.3-11.4,56c0,18.6,4.1,36.9,12.3,54.5c8.2,17.7,19.1,33.2,32.7,46.7
		c13.7,13.5,29.7,24.2,48.3,31.9c18.5,7.8,38.1,11.7,58.9,11.7c40.4,0,75.5-13.8,105.5-41.2c30-27.5,45-62,45-103.5
		c0-19.7-4.1-38.4-12.3-56c-8.2-17.6-19.1-32.9-32.7-45.9c-13.7-12.9-29.8-23.1-48.3-30.3C747.2,320.7,728.2,317,708.6,317z"/>
</g>
<path id="XMLID_392_" class="st1" d="M-114,206"/>
</svg>
